<svg version="1.2" xmlns="http://www.w3.org/2000/svg" viewBox="149 175 1017 323" width="1017" height="323">
	<title>Signature-pdf</title>
	<style>
		.s0 { fill: #000000 } 
	</style>
	<g id="Page 1">
		<path id="Path 2" fill-rule="evenodd" class="s0" d="m212.9 183.4c-22.6 8.4-27.9 14.1-44.5 47.7-19.6 39.5-21.1 49.9-8.8 61.3 14.2 13.2 31.9 19.4 52 18.2l17.7-1.1-1-14.1c-1.2-17.9-12.9-57.8-19.7-67-9.6-13.1-9.9-2.5-0.8 23.9 4.9 14.4 9.4 31.6 10 38.2 0.9 11.8 0.8 12-12.7 11.2-7.4-0.5-20.1-4.5-28.2-9-13.3-7.4-14.5-9.2-13.4-20.2 1.3-13.1 11.1-36.2 24.4-57.7 12.5-20.2 33.5-28.3 67.6-26.2 46.1 2.9 62.3 16.6 61.8 52.3-0.3 21.5-11.5 43.5-34.2 67.3-17.7 18.6-26.2 23.3-60.5 33.6-5.7 1.6-11.1 5.2-12 7.9-1.2 3.9 1.3 4.4 12.1 2.4 23.8-4.3 48.4-18 67.6-37.6 24.8-25.4 33.8-44.6 35.4-75.5 1.6-28.9-4.2-39.3-28.5-51.7-20-10.2-62.1-12.1-84.3-3.9zm420.5 9.4c0 2.8 3.4 5.6 7.6 6.2 4.1 0.6 10.9 5.6 15 11.1 6.3 8.6 7.4 14.9 7.4 45.9v35.9l-20.3-1.2c-19.8-1.2-25.1 1.8-15.9 9.1 2.4 1.9 9.7 3.6 16.2 3.8 6.5 0.1 12.7 1 13.7 2.1 1.1 1-4.8 21.3-13 45.2-49.6 144.8-49.3 143.9-43 143.9 1.7 0 5.5-6.7 8.6-15 16.2-44.5 51.9-148.2 51.9-150.9 0-1.6 1.6-7.1 3.5-12.1 3-8.1 4.2-8.7 10.6-4.7 3.9 2.4 7.1 7.3 7.1 10.9 0 7.1 20.2 29.3 23.6 25.9 1.1-1.2 3.8-14.9 5.9-30.4 2.8-21 5.1-28.4 9-28.4 2.9 0 23.6-1.7 46-3.7 41.2-3.8 62.9-9.1 57.7-14.2-2.6-2.5-84.1 4.8-103.1 9.3l-8.5 2 2.3-33.6c1.2-18.8 0.8-34.4-1-35.5-5.4-3.4-7.2 3.4-9.6 36.9-1.3 18.5-3.9 32.9-6.1 33.6-2.1 0.6-9 2-15.2 3l-11.3 2 2-22.1c2.8-29.2-3.6-57.8-15.5-70.3-9.9-10.3-25.6-13.2-25.6-4.7zm70.5 118.3c0 9.6-1.5 18.4-3.5 19.6-1.9 1.2-3.5 0.6-3.5-1.4 0-2-4.8-9.1-10.6-15.7-12.7-14.4-12.8-15.5-2.6-17.4 19.9-3.9 20.2-3.6 20.2 14.9zm-159-115.5c-6.6 1.5-19.6 1.8-28.9 0.7-13.5-1.7-16.7-1.1-16.7 3.2 0 7.4 15.2 10.1 46.1 8.1l26.2-1.7-1.3 43c-0.9 32.5-2.8 46-7.5 55.3-9 17.6-22.4 29.1-32.2 27.7-10.2-1.5-24.3-21.9-24.3-35.2 0-9 1.3-10.1 11.5-10.1 14.3-0.1 27.4-3.5 27.4-7.1q0-7.6-29.7-4.5l-19.7 2v12.7c0.1 16.3 10.9 40.2 21.5 47.6 13.7 9.6 25.8 7.3 38.5-7.2 21-23.9 24.5-36.5 24.6-88.1v-46.4l-11.7-1.3c-6.4-0.8-17.1-0.2-23.8 1.3zm-81.6 19.5c-0.4 11.2-0.3 35.4 0.3 53.9 1 30 0.3 34.5-6.6 43.2-10.7 13.6-14.7 12.2-12-4.3 2.8-17.8-0.3-27.3-7.2-21.6-3.3 2.8-4.3 8.5-3 17.6 1.1 8.4 0.2 14.5-2.4 16.1-6 3.7-7.9 0.6-8.5-14.6-0.6-17-7-16.3-9.3 1.1-2.2 16.3-10.6 20.5-10.6 5.3 0-12-0.8-12.8-16.4-16.2-10.4-2.2-11.4-1.5-15.3 10.2-5.3 16-10.6 16.1-10.6 0.2 0-15.4-4.3-15.7-29.8-1.9-26.9 14.6-33.8 19.1-33.8 22.2 0 5 9.7 2.7 19-4.7 5.1-4 9.4-6.8 9.6-6.1 0.1 0.6 0.7 4.7 1.1 9 1.3 11.7 4.5 13.3 15 7.7 5.2-2.8 13.5-5 18.5-5 7.3 0 9.9-2.4 12.6-11.5 4.6-15.7 8.9-14.4 8.9 2.7 0 7.7 1.6 14.1 3.6 14.1 1.9 0 3.5-4.7 3.5-10.4 0-5.7 1.6-11.4 3.5-12.6 2.1-1.3 3.5 2.9 3.5 10.2 0 14.3 5.5 19.4 13 11.9 4.1-4.1 8.7-4.5 21.7-2 15.8 3 16.9 2.6 25.6-7.6 11.6-13.7 13.8-13.5 13.8 1.7 0 9 1.6 12.3 5.8 12.3 4.9 0 5.3-2.3 2.9-15-1.6-8.2-2.4-31.7-1.9-52 1.1-47.3-2-74.1-8.8-74.1-3.7 0-5.2 5.4-5.7 20.2zm-108.7 93.9c0 7.8-13.7 18.3-18.1 13.9-2.7-2.7-1.7-6 3.6-11.2 8.5-8.5 14.5-9.6 14.5-2.7zm577.4-51.7c-1.2 1.2-2.2 14.3-2.2 29 0 19.9-1.7 29.3-6.5 36.5-7.2 11-11.2 9.4-11.2-4.3 0-12.8-6.1-17.8-21.7-17.8-12.4 0-13.4 0.8-15.6 12.6-2.7 14.5-16.8 26.4-23.5 19.7-3-2.9-2-6.1 3.8-12.3 8-8.5 7.4-20-1-20-4.7 0-12.5 14.6-12.5 23.4 0 10.8-12.3 3.4-13.5-8.1-0.6-6.5-3.5-12.1-7-13.4-5.8-2.3-11 2.5-25.7 23.2-6.7 9.6-15.7 6.2-10.3-3.9 4.7-8.7 4.5-21.2-0.2-21.2-5.5 0-49.9 21.5-57.1 27.6-3.4 2.9-6.2 6.6-6.2 8.3 0 5.1 10.7 3.2 12.8-2.4 2.8-7.1 11.8-6.7 17.3 0.8 3.6 4.9 6 5.3 13.1 2.1 5.2-2.4 10.6-2.7 13.6-0.8 4.6 2.9 20.2 1.7 36.2-2.7 4.5-1.3 6.1-0.3 5.1 2.8-0.9 2.6-5.3 5.6-9.8 6.6-12.9 3.1-16.9 12.4-9.1 21 8.3 9.2 24.5 9.4 33.6 0.4 5.9-5.9 6.3-8.6 3.1-17.9-4.9-14.1-1.5-17.2 8.6-7.7l8.1 7.6 11.4-7c7.4-4.5 12.2-10.7 13.6-17.5 3-15 9-13.2 7.7 2.4-0.7 7.7 0.5 13.5 3 14.3 2.7 0.9 4.6-4.1 5.3-13.8 1.4-19.7 7.8-19.7 9.2-0.1 1.2 16.5 9.6 23.9 15.4 13.6 4.5-8 8.8-7.3 11.1 1.7 1.5 5.7 3.5 6.8 8.4 4.7 3.5-1.5 13.3-2.4 21.8-2 10.4 0.5 17.6-1.3 22-5.3 10.2-9.2 8-11.4-7.3-7.3-16.4 4.4-21.3 1.5-13.1-7.5 4.2-4.6 10.1-6.3 20.9-5.7 13.9 0.7 15 1.5 15.3 10.8 0.6 19.8 0.6 19.8 14.7 17.2 7.3-1.4 14.9-3.9 17-5.6 2.3-1.9 5.5-1.4 8.1 1.2 3.4 3.3 5 3.1 7.5-1 2.8-4.5 3.9-4.3 7.9 1.1 4.2 5.7 7.1 6 27 2.8 24.5-3.9 32.2-8.3 32.2-18.4 0-7.2 5.2-8.9 8.9-2.9 1.3 2.1 0 6.4-2.9 9.7-12.3 13.7-7.9 28.9 8.2 28.9 10.9 0 35.2-10.1 35.2-14.6 0-5.9-7.5-6.5-17.4-1.4-11.5 5.9-25 7.2-25 2.4 0-1.7 3.2-7.1 7.1-12.1 8.5-10.8 8.9-16.1 1.5-19-3.1-1.2-7.1-6.1-9-11-4.4-11.8-11.6-5.2-11.8 10.7-0.1 8.4-2.3 12.4-8.9 15.7-12 5.9-16.3 0.7-10.6-13 3.3-8 3.5-12.1 0.6-14.9-6-6.1-15.6 3.7-13.2 13.4 2.8 11-1 19.1-9 19.1-7.3 0-8.8-7-2.8-13 2.8-2.8 2.7-6-0.3-11.6-3.1-5.9-6.2-7.3-12.7-5.6q-13.9 3.5-4.6-11.3c5.1-8.3-0.7-30.5-8.4-31.9-5-1-5.9 3.5-6.8 33.2-1 34.2-1.1 34.4-11.1 37.7-7 2.3-11.2 2-14.1-0.9-3.1-3.2-1.3-6.6 7.7-14.1 13.8-11.7 10.1-16.2-9-11-10.4 2.9-14.3 2.6-18.2-1.3-4.4-4.4-6.8-4.2-17.9 1.5-7.1 3.6-14.8 10.7-17.1 15.7-2.2 5-6.4 9.1-9.1 9.1-4.1 0-4.7-6.5-3.1-36.6 1.7-33.7-0.6-45.5-7.5-38.6zm123.6 59.5c3 7.7-4.5 14.9-9.8 9.6-4.5-4.6-1.7-15.1 4-15.1 2 0 4.7 2.5 5.8 5.5zm-277.5 0.9c0 4.9-8.3 11.2-14.9 11.2-8.1 0-8.2-5.6-0.1-10.3 7.4-4.3 15-4.8 15-0.9zm42.3 2.5c0 5.7-9.4 11.1-13 7.5-2.5-2.5 5.5-12.9 9.9-12.9 1.7 0 3.1 2.5 3.1 5.4zm9.3 28.2c2.5 6.3-4.5 15.8-11.6 15.8-7 0-9.9-9.6-4.7-15.9 5.6-6.8 13.7-6.7 16.3 0.1zm-418.6-81.2c0 2.9 2.3 5.3 5.3 5.3 2.9 0 5.2-2.4 5.2-5.3 0-2.9-2.3-5.3-5.2-5.3-3 0-5.3 2.4-5.3 5.3zm170.7 63.3c-2.5 6.6 1.1 12.6 7.7 12.6 5.5 0 6.3-3.3 2.9-12.1-2.7-7-8-7.2-10.6-0.5z"/>
	</g>
</svg>